<svg xmlns="http://www.w3.org/2000/svg" width="500" height="500" viewBox="0 0 500 500" version="1.1"><path d="M 266.505 79.662 C 254.406 82.254, 232.718 91.611, 217 101.020 C 213.975 102.831, 210.569 104.810, 209.430 105.419 C 207.365 106.523, 172.262 130.072, 141 151.324 C 120.678 165.140, 106.977 173.382, 92 180.802 C 85.675 183.936, 80.312 186.613, 80.082 186.752 C 78.988 187.409, 86.482 198.069, 95 207.973 C 100.119 213.926, 112.685 224.817, 131.695 239.780 C 155.756 258.718, 169.042 274.424, 179.589 296.398 C 194.640 327.752, 202.057 364.562, 206.411 429.500 C 206.706 433.900, 207.250 450.100, 207.621 465.500 C 207.991 480.900, 208.711 493.772, 209.220 494.104 C 210.629 495.024, 228.050 496.910, 241.500 497.599 C 254.582 498.270, 275.053 496.918, 290 494.397 C 357.528 483.008, 417.885 443.854, 456.041 386.686 C 463.484 375.535, 478.662 347.329, 477.725 346.391 C 477.487 346.153, 474.873 346.477, 471.917 347.111 C 463.595 348.896, 447.834 347.685, 440.339 344.685 C 411.633 333.194, 394.987 302.511, 372.965 220.500 C 366.199 195.302, 357.084 163.911, 353.800 154.500 C 337.886 108.897, 320.144 85.700, 296.458 79.531 C 289.143 77.626, 275.735 77.684, 266.505 79.662 M 141.400 178.400 C 138.613 181.187, 138 182.557, 138 186 C 138 189.443, 138.613 190.813, 141.400 193.600 C 144.187 196.387, 145.557 197, 149 197 C 152.443 197, 153.813 196.387, 156.600 193.600 C 159.387 190.813, 160 189.443, 160 186 C 160 182.557, 159.387 181.187, 156.600 178.400 C 153.813 175.613, 152.443 175, 149 175 C 145.557 175, 144.187 175.613, 141.400 178.400" stroke="none" fill="#040404" fill-rule="evenodd"/></svg>